<?xml version="1.0" standalone="no"?>
<!DOCTYPE svg PUBLIC "-//W3C//DTD SVG 20010904//EN"
 "http://www.w3.org/TR/2001/REC-SVG-20010904/DTD/svg10.dtd">
<svg version="1.0" xmlns="http://www.w3.org/2000/svg"
 width="616.000000pt" height="616.000000pt" viewBox="0 0 616.000000 616.000000"
 preserveAspectRatio="xMidYMid meet">
<metadata>
Created by potrace 1.15, written by Peter Selinger 2001-2017
</metadata>
<g transform="translate(0.000000,616.000000) scale(0.100000,-0.100000)"
fill="#000000" stroke="none">
<path d="M1790 5643 c0 -20 40 -190 89 -377 117 -443 495 -1891 576 -2206 35
-135 87 -333 115 -440 28 -107 67 -256 86 -330 35 -133 138 -529 276 -1055 39
-148 89 -344 112 -435 l42 -165 686 -3 686 -2 5 22 c3 13 36 158 72 323 111
506 295 1343 400 1819 136 619 204 935 224 1046 18 103 28 160 61 375 6 33 17
112 26 175 14 102 24 147 24 111 0 -28 53 -379 86 -571 38 -221 71 -375 219
-1030 137 -605 183 -809 211 -938 13 -63 35 -160 49 -215 13 -56 40 -174 59
-262 19 -88 56 -250 81 -360 25 -110 60 -266 78 -347 l32 -148 38 0 37 0 0
2003 0 2003 -21 94 c-26 114 -33 147 -93 405 -87 375 -107 460 -118 503 l-11
42 -626 0 -626 0 -13 -57 c-35 -152 -87 -377 -147 -628 -33 -136 -117 -499
-149 -640 -8 -38 -34 -146 -56 -240 -22 -93 -54 -230 -70 -303 -17 -73 -43
-188 -60 -255 -165 -680 -278 -1242 -356 -1769 -10 -65 -20 -118 -24 -118 -3
0 -16 75 -29 168 -29 211 -104 658 -137 822 -24 119 -39 184 -119 520 -19 80
-60 253 -91 385 -31 132 -76 321 -99 420 -43 180 -179 755 -216 915 -11 47
-40 166 -64 265 -24 99 -60 255 -82 347 l-38 168 -562 0 -563 0 0 -37z"/>
<path d="M28 4753 c6 -2 18 -2 25 0 6 3 1 5 -13 5 -14 0 -19 -2 -12 -5z"/>
<path d="M73 4742 c-7 -4 6 -8 30 -9 31 -1 37 1 22 7 -26 11 -37 11 -52 2z"/>
<path d="M157 4723 c-3 -5 9 -9 26 -10 24 -2 28 0 17 7 -18 12 -37 13 -43 3z"/>
<path d="M234 4698 c-5 -8 -2 -9 9 -5 9 3 19 2 22 -3 4 -6 14 -10 23 -10 12 1
10 5 -8 15 -31 18 -37 18 -46 3z"/>
<path d="M88 4693 c7 -3 16 -2 19 1 4 3 -2 6 -13 5 -11 0 -14 -3 -6 -6z"/>
<path d="M128 4673 c6 -2 18 -2 25 0 6 3 1 5 -13 5 -14 0 -19 -2 -12 -5z"/>
<path d="M312 4671 c-11 -7 -10 -9 3 -14 10 -4 14 -3 10 4 -4 6 4 8 22 4 23
-4 24 -4 8 4 -26 12 -27 12 -43 2z"/>
<path d="M250 4650 c-13 -8 -13 -10 2 -10 9 0 20 5 23 10 8 13 -5 13 -25 0z"/>
<path d="M370 4649 c-12 -8 -10 -9 8 -4 12 3 22 3 22 -2 0 -8 24 -19 89 -41
45 -15 52 -8 9 7 -18 7 -50 21 -70 32 -43 22 -39 22 -58 8z"/>
<path d="M420 4570 c0 -5 5 -10 11 -10 5 0 7 5 4 10 -3 6 -8 10 -11 10 -2 0
-4 -4 -4 -10z"/>
<path d="M502 4575 c3 -3 23 -8 44 -10 21 -3 41 -10 44 -15 3 -5 18 -14 33
-19 16 -6 25 -15 22 -21 -3 -6 1 -7 9 -4 9 3 16 8 16 9 0 11 -101 57 -134 61
-22 2 -38 2 -34 -1z"/>
<path d="M570 4500 c-24 -15 -7 -18 20 -3 14 7 18 13 10 13 -8 0 -22 -4 -30
-10z"/>
<path d="M670 4500 c-8 -5 -10 -10 -5 -10 6 0 17 5 25 10 8 5 11 10 5 10 -5 0
-17 -5 -25 -10z"/>
<path d="M740 4456 c14 -7 42 -23 63 -35 20 -13 37 -21 37 -18 0 9 -96 67
-111 67 -8 0 -3 -6 11 -14z"/>
<path d="M720 4430 c0 -5 5 -10 11 -10 5 0 7 5 4 10 -3 6 -8 10 -11 10 -2 0
-4 -4 -4 -10z"/>
<path d="M640 4410 c0 -5 5 -10 10 -10 6 0 10 5 10 10 0 6 -4 10 -10 10 -5 0
-10 -4 -10 -10z"/>
<path d="M845 4380 c3 -5 13 -10 21 -10 8 0 12 5 9 10 -3 6 -13 10 -21 10 -8
0 -12 -4 -9 -10z"/>
<path d="M810 4370 c0 -5 5 -10 10 -10 6 0 10 5 10 10 0 6 -4 10 -10 10 -5 0
-10 -4 -10 -10z"/>
<path d="M880 4334 c-16 -8 -19 -14 -9 -14 8 0 24 7 35 15 24 18 7 18 -26 -1z"/>
<path d="M925 4330 c-3 -5 -1 -10 4 -10 6 0 11 5 11 10 0 6 -2 10 -4 10 -3 0
-8 -4 -11 -10z"/>
<path d="M956 4306 c3 -9 10 -16 15 -16 5 0 9 -7 9 -17 0 -9 3 -13 6 -10 4 4
19 -3 35 -14 29 -20 35 -56 12 -74 -9 -8 -8 -13 5 -25 14 -13 15 -12 10 2 -4
10 1 23 13 34 19 17 19 18 -8 47 -43 45 -104 91 -97 73z"/>
<path d="M900 4270 c0 -5 7 -10 16 -10 8 0 12 5 9 10 -3 6 -10 10 -16 10 -5 0
-9 -4 -9 -10z"/>
<path d="M961 4234 c0 -11 3 -14 6 -6 3 7 2 16 -1 19 -3 4 -6 -2 -5 -13z"/>
<path d="M1090 4190 c0 -19 5 -25 19 -25 20 0 22 -46 4 -67 -14 -15 -13 -17 5
-15 11 0 18 6 15 13 -2 7 0 15 6 19 6 3 11 11 11 16 0 6 -5 7 -12 3 -7 -5 -9
-2 -5 8 7 19 -11 38 -29 31 -10 -4 -12 0 -8 11 3 9 3 16 0 16 -3 0 -6 -4 -6
-10z"/>
<path d="M1155 4111 c-9 -15 4 -33 20 -27 8 3 16 0 18 -7 2 -7 7 -9 11 -6 3 3
-5 16 -18 28 -15 14 -26 19 -31 12z"/>
<path d="M58 4073 c7 -3 16 -2 19 1 4 3 -2 6 -13 5 -11 0 -14 -3 -6 -6z"/>
<path d="M13 4053 c9 -2 23 -2 30 0 6 3 -1 5 -18 5 -17 0 -22 -2 -12 -5z"/>
<path d="M65 4040 c3 -5 8 -10 11 -10 2 0 4 5 4 10 0 6 -5 10 -11 10 -5 0 -7
-4 -4 -10z"/>
<path d="M1140 4030 c0 -5 7 -10 16 -10 8 0 12 5 9 10 -3 6 -10 10 -16 10 -5
0 -9 -4 -9 -10z"/>
<path d="M1230 4032 c0 -6 14 -24 30 -39 21 -18 29 -33 25 -47 -3 -12 -2 -15
1 -8 8 18 34 -4 34 -29 0 -10 5 -21 11 -24 24 -15 17 5 -18 56 -45 67 -83 108
-83 91z"/>
<path d="M60 4004 c36 -14 85 -34 109 -45 24 -11 51 -17 60 -14 14 6 13 9 -8
26 -13 10 -28 19 -35 19 -6 0 3 -9 19 -20 17 -11 25 -20 19 -20 -12 0 -108 40
-157 65 -16 8 -38 15 -50 14 -12 0 7 -12 43 -25z"/>
<path d="M210 3996 c0 -2 7 -6 15 -10 8 -3 15 -1 15 4 0 6 -7 10 -15 10 -8 0
-15 -2 -15 -4z"/>
<path d="M1200 3960 c0 -5 5 -10 10 -10 6 0 10 5 10 10 0 6 -4 10 -10 10 -5 0
-10 -4 -10 -10z"/>
<path d="M274 3907 c10 -7 61 -40 112 -74 52 -34 94 -58 94 -54 0 4 -11 14
-25 21 -14 7 -25 17 -25 22 0 12 12 10 30 -7 14 -13 16 -12 16 4 0 15 -7 17
-37 15 -26 -2 -42 2 -54 16 -10 11 -22 20 -27 20 -5 0 -26 11 -48 25 -22 14
-43 25 -47 24 -5 0 0 -6 11 -12z"/>
<path d="M331 3906 c2 -2 20 -11 39 -20 l35 -17 -25 20 c-14 11 -31 21 -39 21
-8 0 -12 -2 -10 -4z"/>
<path d="M1290 3881 c0 -5 5 -13 10 -16 6 -3 10 -2 10 4 0 5 -4 13 -10 16 -5
3 -10 2 -10 -4z"/>
<path d="M1356 3853 c-4 -9 -4 -14 0 -11 8 8 94 -120 94 -139 0 -7 5 -13 11
-13 6 0 9 -9 6 -19 -2 -10 -1 -25 4 -32 6 -10 9 -4 9 17 0 19 -19 61 -56 120
-31 49 -57 90 -59 92 -1 2 -6 -5 -9 -15z"/>
<path d="M1315 3770 c-3 -5 -1 -10 4 -10 6 0 11 5 11 10 0 6 -2 10 -4 10 -3 0
-8 -4 -11 -10z"/>
<path d="M535 3720 c10 -11 20 -20 23 -20 3 0 -3 9 -13 20 -10 11 -20 20 -23
20 -3 0 3 -9 13 -20z"/>
<path d="M580 3677 c0 -2 15 -16 33 -33 l32 -29 -29 33 c-28 30 -36 37 -36 29z"/>
<path d="M610 3676 c0 -2 8 -10 18 -17 15 -13 16 -12 3 4 -13 16 -21 21 -21
13z"/>
<path d="M1450 3621 c0 -6 4 -13 10 -16 6 -3 7 1 4 9 -7 18 -14 21 -14 7z"/>
<path d="M1516 3597 c3 -10 9 -15 12 -12 3 3 0 11 -7 18 -10 9 -11 8 -5 -6z"/>
<path d="M660 3598 c0 -3 14 -22 30 -43 17 -21 30 -34 30 -29 -1 10 -60 82
-60 72z"/>
<path d="M701 3578 c5 -10 11 -18 12 -18 2 0 3 8 3 18 0 10 -6 19 -13 19 -8 0
-9 -6 -2 -19z"/>
<path d="M1533 3541 c0 -20 3 -27 9 -19 6 10 8 10 8 -1 0 -8 3 -12 6 -9 3 4
-1 18 -9 33 l-14 27 0 -31z"/>
<path d="M571 3474 c-68 -18 -126 -36 -130 -40 -3 -3 3 -4 15 0 12 4 50 13 85
21 112 25 152 36 168 45 28 16 -6 10 -138 -26z"/>
<path d="M705 3480 c-3 -5 -1 -10 4 -10 6 0 11 5 11 10 0 6 -2 10 -4 10 -3 0
-8 -4 -11 -10z"/>
<path d="M1557 3469 c-7 -28 -6 -31 10 -14 6 6 8 18 3 24 -5 9 -9 5 -13 -10z"/>
<path d="M636 3461 c-3 -4 6 -6 19 -3 14 2 25 6 25 8 0 8 -39 4 -44 -5z"/>
<path d="M1521 3454 c0 -11 3 -14 6 -6 3 7 2 16 -1 19 -3 4 -6 -2 -5 -13z"/>
<path d="M578 3443 c7 -3 16 -2 19 1 4 3 -2 6 -13 5 -11 0 -14 -3 -6 -6z"/>
<path d="M1575 3439 c-4 -6 -5 -12 -2 -15 2 -3 7 2 10 11 7 17 1 20 -8 4z"/>
<path d="M360 3418 c-15 -6 -20 -12 -12 -15 7 -3 19 1 28 7 8 7 18 10 21 6 4
-4 1 -11 -7 -16 -8 -6 -10 -10 -4 -10 5 0 19 7 30 15 10 8 14 15 7 15 -6 0
-17 2 -25 4 -7 3 -24 0 -38 -6z"/>
<path d="M1530 3411 c0 -5 5 -13 10 -16 6 -3 10 -2 10 4 0 5 -4 13 -10 16 -5
3 -10 2 -10 -4z"/>
<path d="M275 3393 l-40 -13 45 5 c27 3 40 2 32 -3 -11 -7 -10 -10 3 -15 9 -4
14 -3 10 3 -4 7 9 9 37 5 l43 -5 -40 12 c-22 6 -42 14 -45 18 -3 3 -23 0 -45
-7z"/>
<path d="M455 3400 c-3 -5 1 -10 9 -10 9 0 16 5 16 10 0 6 -4 10 -9 10 -6 0
-13 -4 -16 -10z"/>
<path d="M1590 3390 c0 -19 3 -21 12 -12 9 9 9 15 0 24 -9 9 -12 7 -12 -12z"/>
<path d="M200 3376 c0 -2 9 -6 20 -9 11 -3 18 -1 14 4 -5 9 -34 13 -34 5z"/>
<path d="M120 3350 c-25 -10 -38 -19 -30 -19 8 0 35 9 60 19 25 10 38 19 30
19 -8 0 -35 -9 -60 -19z"/>
<path d="M268 3363 c7 -3 16 -2 19 1 4 3 -2 6 -13 5 -11 0 -14 -3 -6 -6z"/>
<path d="M1605 3361 c-5 -10 9 -88 18 -97 2 -3 7 7 9 21 3 16 -1 32 -9 41 -8
8 -12 21 -9 29 6 17 0 20 -9 6z"/>
<path d="M53 3319 c15 -6 25 -14 22 -18 -2 -5 7 -6 22 -3 31 6 15 17 -37 26
-33 5 -34 5 -7 -5z"/>
<path d="M9 3312 c11 -8 11 -10 0 -15 -11 -4 -11 -6 1 -6 8 0 22 4 30 9 9 6
10 10 3 10 -6 0 -20 3 -30 6 -13 4 -15 3 -4 -4z"/>
<path d="M1555 3290 c-3 -5 -1 -10 4 -10 6 0 11 5 11 10 0 6 -2 10 -4 10 -3 0
-8 -4 -11 -10z"/>
<path d="M1601 3240 c0 -8 4 -22 9 -30 12 -18 12 -2 0 25 -6 13 -9 15 -9 5z"/>
<path d="M1647 3230 c-6 -22 2 -60 12 -60 4 0 7 9 7 19 0 11 -4 17 -9 14 -4
-2 -5 7 -1 21 3 14 4 26 1 26 -2 0 -7 -9 -10 -20z"/>
<path d="M1605 3180 c3 -5 8 -10 11 -10 2 0 4 5 4 10 0 6 -5 10 -11 10 -5 0
-7 -4 -4 -10z"/>
<path d="M1665 3140 c3 -5 8 -10 11 -10 2 0 4 5 4 10 0 6 -5 10 -11 10 -5 0
-7 -4 -4 -10z"/>
<path d="M1570 3114 l-35 -14 35 6 c19 4 44 10 55 15 l20 8 -20 0 c-11 0 -36
-7 -55 -15z"/>
<path d="M1440 3109 c0 -7 -11 -9 -30 -5 -40 8 -38 -1 3 -13 24 -7 26 -9 10
-10 -12 -1 -25 -6 -28 -11 -7 -12 22 -6 90 16 l40 14 -42 -5 c-35 -4 -41 -2
-37 10 4 8 3 15 0 15 -3 0 -6 -5 -6 -11z"/>
<path d="M1478 3113 c6 -2 18 -2 25 0 6 3 1 5 -13 5 -14 0 -19 -2 -12 -5z"/>
<path d="M1310 3051 c0 -5 -25 -15 -55 -21 -30 -6 -55 -14 -55 -17 0 -5 50 4
98 18 30 10 45 29 22 29 -5 0 -10 -4 -10 -9z"/>
<path d="M1068 3033 c7 -3 16 -2 19 1 4 3 -2 6 -13 5 -11 0 -14 -3 -6 -6z"/>
<path d="M1158 3033 c7 -3 16 -2 19 1 4 3 -2 6 -13 5 -11 0 -14 -3 -6 -6z"/>
<path d="M1048 3018 c6 -6 18 -8 28 -6 14 3 12 5 -9 10 -19 3 -25 2 -19 -4z"/>
<path d="M1115 3020 c3 -5 11 -10 16 -10 6 0 7 5 4 10 -3 6 -11 10 -16 10 -6
0 -7 -4 -4 -10z"/>
<path d="M1130 3000 c-20 -6 -21 -8 -5 -8 11 0 31 4 45 8 20 6 21 8 5 8 -11 0
-31 -4 -45 -8z"/>
<path d="M1060 2980 c0 -13 11 -13 30 0 12 8 11 10 -7 10 -13 0 -23 -4 -23
-10z"/>
<path d="M810 2940 c-25 -10 -37 -19 -28 -19 9 -1 18 -5 20 -9 2 -5 23 -3 48
5 l45 13 -50 -5 c-36 -4 -45 -3 -34 4 9 6 30 12 47 13 17 1 28 6 26 10 -7 12
-24 9 -74 -12z"/>
<path d="M978 2953 c6 -2 18 -2 25 0 6 3 1 5 -13 5 -14 0 -19 -2 -12 -5z"/>
<path d="M733 2943 c9 -2 23 -2 30 0 6 3 -1 5 -18 5 -16 0 -22 -2 -12 -5z"/>
<path d="M910 2940 c-13 -9 -13 -10 0 -9 8 0 24 4 35 9 l20 9 -20 0 c-11 0
-27 -4 -35 -9z"/>
<path d="M720 2891 c0 -4 11 -6 25 -3 14 2 25 6 25 8 0 2 -11 4 -25 4 -14 0
-25 -4 -25 -9z"/>
<path d="M413 2873 c-7 -2 -13 -9 -13 -15 0 -7 4 -7 13 0 6 5 21 12 32 15 l20
5 -20 0 c-11 0 -26 -2 -32 -5z"/>
<path d="M678 2873 c7 -3 16 -2 19 1 4 3 -2 6 -13 5 -11 0 -14 -3 -6 -6z"/>
<path d="M520 2860 c-11 -8 -7 -9 15 -4 37 8 45 14 19 14 -10 0 -26 -5 -34
-10z"/>
<path d="M638 2863 c7 -3 16 -2 19 1 4 3 -2 6 -13 5 -11 0 -14 -3 -6 -6z"/>
<path d="M442 2851 c-9 -6 -5 -8 15 -9 15 0 42 -3 58 -6 21 -5 18 -2 -10 8
-47 18 -46 18 -63 7z"/>
<path d="M565 2850 l-20 -9 20 0 c11 0 29 4 40 9 l20 9 -20 0 c-11 0 -29 -4
-40 -9z"/>
<path d="M2036 2834 c-38 -7 -71 -16 -75 -20 -6 -6 67 3 103 13 11 3 16 1 12
-5 -3 -6 -1 -14 5 -18 8 -4 9 -3 5 4 -4 6 5 18 21 26 34 18 20 18 -71 0z"/>
<path d="M430 2815 c-18 -10 -20 -14 -8 -15 9 0 20 5 24 11 3 6 15 9 25 6 11
-3 17 -1 13 4 -7 13 -25 11 -54 -6z"/>
<path d="M2108 2813 c7 -3 16 -2 19 1 4 3 -2 6 -13 5 -11 0 -14 -3 -6 -6z"/>
<path d="M1898 2803 c7 -3 16 -2 19 1 4 3 -2 6 -13 5 -11 0 -14 -3 -6 -6z"/>
<path d="M2028 2803 c7 -3 16 -2 19 1 4 3 -2 6 -13 5 -11 0 -14 -3 -6 -6z"/>
<path d="M235 2785 c-40 -19 -20 -18 30 0 22 8 31 14 20 14 -11 0 -33 -7 -50
-14z"/>
<path d="M312 2785 c-30 -7 -58 -17 -64 -23 -12 -12 97 14 122 29 20 11 6 10
-58 -6z"/>
<path d="M1808 2783 c6 -2 18 -2 25 0 6 3 1 5 -13 5 -14 0 -19 -2 -12 -5z"/>
<path d="M1696 2755 c-3 -9 0 -15 10 -15 8 0 13 4 9 9 -3 5 3 12 12 14 14 4
14 5 -3 6 -12 0 -24 -6 -28 -14z"/>
<path d="M2112 2745 c0 -16 2 -22 5 -12 2 9 2 23 0 30 -3 6 -5 -1 -5 -18z"/>
<path d="M195 2750 c-8 -13 5 -13 25 0 13 8 13 10 -2 10 -9 0 -20 -4 -23 -10z"/>
<path d="M1615 2751 c-29 -7 -29 -7 14 -14 24 -4 46 -5 49 -2 3 3 -6 5 -19 6
l-24 1 25 8 c20 6 21 8 5 8 -11 0 -33 -3 -50 -7z"/>
<path d="M1745 2750 c-13 -6 -5 -7 25 -3 25 3 47 7 49 9 9 8 -55 2 -74 -6z"/>
<path d="M95 2723 c-18 -14 -18 -15 -2 -9 10 3 25 6 33 6 9 0 12 5 9 10 -8 14
-16 12 -40 -7z"/>
<path d="M1538 2733 c6 -2 18 -2 25 0 6 3 1 5 -13 5 -14 0 -19 -2 -12 -5z"/>
<path d="M1488 2723 c6 -2 18 -2 25 0 6 3 1 5 -13 5 -14 0 -19 -2 -12 -5z"/>
<path d="M1708 2723 c7 -3 16 -2 19 1 4 3 -2 6 -13 5 -11 0 -14 -3 -6 -6z"/>
<path d="M38 2703 c6 -2 18 -2 25 0 6 3 1 5 -13 5 -14 0 -19 -2 -12 -5z"/>
<path d="M1393 2703 c9 -2 25 -2 35 0 9 3 1 5 -18 5 -19 0 -27 -2 -17 -5z"/>
<path d="M1266 2687 l-59 -10 39 -13 c47 -16 54 -17 54 -5 0 5 -10 12 -22 14
-16 3 -12 5 12 6 19 1 44 6 55 11 l20 9 -20 -1 c-11 0 -46 -5 -79 -11z"/>
<path d="M2091 2680 c-1 -14 -4 -36 -6 -50 -5 -22 -4 -22 4 -5 9 19 10 18 11
-5 1 -14 3 -20 6 -15 2 6 0 30 -5 55 -5 27 -9 35 -10 20z"/>
<path d="M1335 2671 c-26 -6 -20 -8 34 -15 35 -4 66 -5 69 -2 3 3 -10 6 -29 6
-26 0 -30 3 -19 10 12 8 11 10 -5 9 -11 -1 -33 -4 -50 -8z"/>
<path d="M1145 2660 c-23 -6 -20 -7 15 -4 29 3 40 1 31 -5 -10 -7 -7 -9 12 -8
15 1 27 5 27 8 0 6 -40 20 -50 18 -3 -1 -18 -5 -35 -9z"/>
<path d="M1068 2643 c7 -3 16 -2 19 1 4 3 -2 6 -13 5 -11 0 -14 -3 -6 -6z"/>
<path d="M992 2629 c-13 -5 -28 -7 -33 -3 -5 3 -9 0 -9 -5 0 -15 22 -14 61 4
37 15 19 20 -19 4z"/>
<path d="M970 2561 c36 -33 68 -57 73 -54 4 2 14 -1 22 -7 10 -8 15 -9 15 -2
0 6 -9 16 -21 22 -12 7 -18 18 -15 26 7 19 -23 31 -34 14 -10 -16 -30 -3 -63
38 -10 12 -24 22 -30 22 -7 0 17 -27 53 -59z m66 -26 c2 -22 0 -23 -14 -9 -13
14 -13 17 -1 25 8 5 14 9 14 9 0 0 1 -11 1 -25z"/>
<path d="M988 2583 c7 -3 16 -2 19 1 4 3 -2 6 -13 5 -11 0 -14 -3 -6 -6z"/>
<path d="M1095 2540 c10 -11 20 -20 22 -20 2 0 -2 9 -9 20 -7 11 -17 20 -22
20 -5 0 -1 -9 9 -20z"/>
<path d="M2093 2505 c0 -22 2 -30 4 -17 2 12 2 30 0 40 -3 9 -5 -1 -4 -23z"/>
<path d="M1067 2468 c3 -5 12 -7 20 -4 9 4 23 1 31 -6 11 -9 13 -9 9 -1 -4 7
0 13 10 16 10 2 -3 4 -29 4 -26 0 -45 -5 -41 -9z"/>
<path d="M1176 2466 c21 -15 30 -14 19 3 -3 6 -14 11 -23 11 -13 0 -13 -2 4
-14z"/>
<path d="M1138 2409 c34 -32 46 -39 55 -30 7 7 8 11 2 10 -16 -4 -45 12 -40
21 3 5 -9 16 -27 24 -32 16 -32 15 10 -25z"/>
<path d="M1155 2440 c3 -5 8 -10 11 -10 2 0 4 5 4 10 0 6 -5 10 -11 10 -5 0
-7 -4 -4 -10z"/>
<path d="M2083 2415 c0 -22 2 -30 4 -17 2 12 2 30 0 40 -3 9 -5 -1 -4 -23z"/>
<path d="M1180 2415 c0 -8 2 -15 4 -15 2 0 6 7 10 15 3 8 1 15 -4 15 -6 0 -10
-7 -10 -15z"/>
<path d="M1184 2347 c-8 -9 -7 -16 1 -24 10 -9 13 -6 13 13 0 13 -1 24 -2 24
0 -1 -6 -6 -12 -13z"/>
<path d="M1091 2240 c-96 -104 -117 -132 -97 -124 9 3 16 9 16 13 0 15 105
116 119 113 13 -2 14 -1 2 7 -12 7 -9 14 15 34 16 14 27 28 24 31 -3 3 -39
-30 -79 -74z"/>
<path d="M2010 2311 c0 -6 5 -13 10 -16 6 -3 10 1 10 9 0 9 -4 16 -10 16 -5 0
-10 -4 -10 -9z"/>
<path d="M2060 2306 c0 -8 5 -18 10 -21 6 -3 10 3 10 14 0 12 -4 21 -10 21 -5
0 -10 -6 -10 -14z"/>
<path d="M1170 2281 c0 -5 6 -11 13 -14 6 -2 9 -8 5 -12 -4 -4 -14 -2 -23 5
-11 9 -15 9 -15 1 0 -16 29 -26 41 -14 11 11 2 43 -12 43 -5 0 -9 -4 -9 -9z"/>
<path d="M2036 2240 c-11 -71 -13 -156 -6 -180 7 -21 8 -18 7 15 -3 92 3 165
14 165 7 0 8 -14 4 -40 -4 -26 -3 -40 4 -40 16 0 13 73 -3 95 -13 19 -15 18
-20 -15z"/>
<path d="M1097 2192 c-23 -25 -21 -32 6 -32 18 0 19 2 7 10 -13 9 -13 11 0 19
8 6 12 12 9 16 -3 3 -13 -3 -22 -13z"/>
<path d="M2053 2095 c0 -27 2 -38 4 -22 2 15 2 37 0 50 -2 12 -4 0 -4 -28z"/>
<path d="M999 2101 c-13 -11 -19 -20 -13 -21 5 0 16 6 22 12 10 10 15 10 22
-2 5 -8 10 -10 10 -5 0 6 -4 16 -9 23 -6 10 -13 8 -32 -7z"/>
<path d="M2004 2048 c0 -42 4 -69 8 -60 5 13 7 12 7 -7 1 -13 3 -22 6 -19 3 3
-1 41 -9 84 l-14 79 2 -77z"/>
<path d="M956 2093 c-6 -14 -5 -15 5 -6 7 7 10 15 7 18 -3 3 -9 -2 -12 -12z"/>
<path d="M890 2016 c-59 -62 -85 -96 -73 -96 5 0 14 9 21 21 8 13 19 18 29 15
11 -5 14 -2 9 9 -6 17 60 92 72 81 3 -4 0 -12 -6 -18 -14 -14 -16 -28 -3 -28
13 0 21 41 12 58 -6 10 -21 0 -61 -42z"/>
<path d="M2043 1965 c0 -27 2 -38 4 -22 2 15 2 37 0 50 -2 12 -4 0 -4 -28z"/>
<path d="M2010 1947 c0 -5 5 -28 11 -53 9 -34 9 -48 0 -57 -6 -6 -11 -26 -11
-43 0 -18 -4 -36 -10 -39 -5 -3 -10 -12 -10 -18 0 -7 7 -4 15 6 13 18 14 18
18 0 2 -10 2 1 -1 23 -2 24 1 44 7 48 16 10 14 68 -4 107 -8 19 -14 30 -15 26z"/>
<path d="M855 1930 c3 -5 11 -10 16 -10 6 0 7 5 4 10 -3 6 -11 10 -16 10 -6 0
-7 -4 -4 -10z"/>
<path d="M767 1883 c-16 -18 -26 -33 -23 -33 13 0 58 48 55 57 -2 5 -17 -6
-32 -24z"/>
<path d="M1730 1911 c0 -5 7 -11 15 -15 8 -3 15 -1 15 3 0 5 -7 11 -15 15 -8
3 -15 1 -15 -3z"/>
<path d="M1684 1864 c4 -9 1 -23 -5 -31 -7 -7 -10 -15 -7 -18 2 -2 12 9 21 24
15 26 15 29 1 35 -12 5 -15 2 -10 -10z"/>
<path d="M780 1855 c-11 -13 -10 -14 4 -9 9 3 16 10 16 15 0 13 -6 11 -20 -6z"/>
<path d="M1606 1831 c-2 -3 -2 -23 -1 -44 2 -24 -2 -42 -11 -50 -8 -7 -20 -18
-27 -25 -7 -7 -22 -23 -34 -34 -13 -12 -23 -26 -23 -32 0 -13 150 145 150 159
0 5 -5 4 -11 -2 -9 -9 -15 -8 -25 2 -20 19 -17 27 5 20 11 -3 22 -2 24 2 3 4
-6 9 -19 9 -13 1 -26 -1 -28 -5z m24 -51 c0 -5 -4 -10 -10 -10 -5 0 -10 5 -10
10 0 6 5 10 10 10 6 0 10 -4 10 -10z"/>
<path d="M1780 1829 c0 -5 5 -7 10 -4 6 3 10 8 10 11 0 2 -4 4 -10 4 -5 0 -10
-5 -10 -11z"/>
<path d="M1814 1825 c-19 -15 -19 -15 0 -8 15 5 18 3 13 -10 -3 -9 -3 -19 2
-21 4 -3 7 8 7 25 0 16 0 29 -1 29 -1 0 -10 -7 -21 -15z"/>
<path d="M687 1792 l-27 -28 28 1 c23 0 27 4 27 28 1 15 0 27 0 27 -1 0 -13
-13 -28 -28z m23 -12 c0 -5 -4 -10 -10 -10 -5 0 -10 5 -10 10 0 6 5 10 10 10
6 0 10 -4 10 -10z"/>
<path d="M1898 1726 c20 -17 51 -48 70 -68 37 -41 52 -47 52 -22 0 8 -4 13 -8
10 -9 -5 -43 22 -59 46 -4 7 -17 18 -28 24 -11 7 -20 18 -19 25 1 8 -9 15 -22
15 -20 2 -18 -2 14 -30z"/>
<path d="M1938 1752 c-15 -6 -13 -11 17 -35 26 -20 35 -24 35 -13 0 9 -10 21
-22 27 -22 12 -22 12 -3 20 12 5 14 8 5 8 -8 0 -23 -4 -32 -7z"/>
<path d="M630 1734 c0 -5 -18 -27 -40 -49 -27 -28 -38 -46 -34 -60 4 -15 3
-17 -4 -6 -8 11 -15 8 -39 -15 -16 -16 -44 -42 -63 -57 -19 -16 -28 -25 -20
-21 8 4 25 16 37 26 17 16 23 17 30 6 4 -7 20 -13 35 -13 14 -1 24 3 22 7 -3
4 -16 8 -30 8 -24 0 -24 1 -8 25 9 14 22 25 28 24 30 -4 39 1 27 15 -9 11 -9
16 1 23 21 13 71 84 64 90 -3 4 -6 2 -6 -3z"/>
<path d="M1523 1712 c-1 -22 0 -24 9 -8 6 10 6 22 2 26 -5 5 -10 -3 -11 -18z"/>
<path d="M1725 1678 c-15 -18 -47 -55 -70 -83 -50 -58 -269 -316 -335 -395
-25 -30 -66 -79 -92 -109 -49 -57 -59 -81 -35 -81 19 0 9 -12 457 515 111 130
130 159 113 176 -7 7 -19 0 -38 -23z"/>
<path d="M2011 1698 c-1 -10 -6 -18 -12 -18 -5 0 -7 -5 -3 -11 9 -15 28 16 20
34 -2 7 -5 4 -5 -5z"/>
<path d="M1445 1669 c-11 -16 -1 -19 13 -3 7 8 8 14 3 14 -5 0 -13 -5 -16 -11z"/>
<path d="M1465 1650 c-10 -11 -13 -20 -8 -20 13 0 38 29 31 35 -3 3 -13 -4
-23 -15z"/>
<path d="M595 1640 c-3 -5 -1 -10 4 -10 6 0 11 5 11 10 0 6 -2 10 -4 10 -3 0
-8 -4 -11 -10z"/>
<path d="M1478 1621 c-9 -11 -14 -22 -11 -25 4 -3 2 -6 -4 -6 -6 0 -13 -7 -17
-15 -9 -24 1 -17 30 20 28 37 30 58 2 26z"/>
<path d="M540 1579 c0 -5 5 -7 10 -4 6 3 10 8 10 11 0 2 -4 4 -10 4 -5 0 -10
-5 -10 -11z"/>
<path d="M1370 1556 c0 -9 5 -16 10 -16 6 0 10 4 10 9 0 6 -4 13 -10 16 -5 3
-10 -1 -10 -9z"/>
<path d="M1409 1543 c-13 -16 -12 -17 4 -4 9 7 17 15 17 17 0 8 -8 3 -21 -13z"/>
<path d="M1353 1515 c-9 -9 -9 -16 -3 -20 6 -4 1 -16 -12 -30 -15 -16 -26 -20
-34 -14 -8 6 -14 4 -18 -7 -9 -23 -7 -31 4 -14 5 8 12 11 16 7 9 -9 -16 -38
-27 -31 -5 3 -6 -2 -3 -10 4 -11 13 -6 37 22 18 20 47 51 65 69 35 34 34 46
-1 16 -19 -17 -19 -17 -13 5 8 25 6 27 -11 7z"/>
<path d="M1734 1517 c-6 -7 -8 -19 -6 -26 3 -8 0 -11 -5 -8 -6 4 -22 -6 -37
-22 -21 -22 -24 -30 -13 -34 18 -7 45 24 39 43 -3 8 -1 12 3 7 10 -9 56 33 49
44 -7 12 -17 11 -30 -4z"/>
<path d="M1289 1503 c-13 -16 -12 -17 4 -4 9 7 17 15 17 17 0 8 -8 3 -21 -13z"/>
<path d="M342 1477 c-6 -6 -49 -32 -96 -56 -48 -24 -85 -46 -83 -48 4 -4 84
32 127 57 14 8 43 15 64 15 22 0 41 5 43 13 3 6 0 12 -7 12 -6 0 -8 -5 -4 -12
5 -8 2 -9 -10 -5 -10 4 -20 7 -23 7 -3 0 0 7 7 15 7 8 8 15 2 15 -5 0 -14 -6
-20 -13z"/>
<path d="M1310 1479 c0 -5 5 -7 10 -4 6 3 10 8 10 11 0 2 -4 4 -10 4 -5 0 -10
-5 -10 -11z"/>
<path d="M275 1390 c4 -6 11 -8 16 -5 14 9 11 15 -7 15 -8 0 -12 -5 -9 -10z"/>
<path d="M1637 1389 c7 -7 15 -10 18 -7 3 3 -2 9 -12 12 -14 6 -15 5 -6 -5z"/>
<path d="M235 1380 c-3 -6 1 -7 9 -4 18 7 21 14 7 14 -6 0 -13 -4 -16 -10z"/>
<path d="M1204 1341 c0 -23 1 -41 2 -41 0 0 13 14 30 32 16 17 23 28 16 24 -8
-5 -21 -1 -31 9 -18 15 -19 14 -17 -24z m26 -1 c0 -5 -4 -10 -10 -10 -5 0 -10
5 -10 10 0 6 5 10 10 10 6 0 10 -4 10 -10z"/>
<path d="M1607 1374 c-3 -3 -3 -13 0 -22 4 -10 2 -13 -5 -8 -6 3 -14 1 -18 -5
-4 -8 -3 -9 4 -5 7 4 12 2 12 -5 0 -6 9 -1 19 12 18 23 19 39 2 39 -4 0 -10
-3 -14 -6z"/>
<path d="M120 1360 c-8 -5 -10 -10 -5 -10 6 0 17 5 25 10 8 5 11 10 5 10 -5 0
-17 -5 -25 -10z"/>
<path d="M77 1339 c7 -7 15 -10 18 -7 3 3 -2 9 -12 12 -14 6 -15 5 -6 -5z"/>
<path d="M40 1330 c-13 -8 -12 -10 3 -10 9 0 17 5 17 10 0 12 -1 12 -20 0z"/>
<path d="M120 1320 c0 -5 5 -10 10 -10 6 0 10 5 10 10 0 6 -4 10 -10 10 -5 0
-10 -4 -10 -10z"/>
<path d="M73 1313 c4 -7 -3 -15 -20 -20 -22 -8 -18 -9 27 -9 29 0 47 2 39 4
-8 3 -23 12 -33 21 -11 9 -16 11 -13 4z"/>
<path d="M1555 1310 c-11 -18 -14 -51 -4 -45 5 4 7 11 4 16 -4 5 1 12 9 15 17
7 22 24 7 24 -6 0 -13 -4 -16 -10z"/>
<path d="M1130 1270 c-8 -5 -12 -12 -9 -15 4 -3 12 1 19 10 14 17 11 19 -10 5z"/>
<path d="M1160 1267 c0 -7 -9 -18 -20 -25 -11 -7 -20 -17 -20 -24 0 -6 14 1
30 17 31 29 38 45 20 45 -5 0 -10 -6 -10 -13z"/>
<path d="M1475 1213 c-22 -26 -34 -43 -26 -39 9 6 12 5 9 -5 -3 -8 -11 -14
-19 -14 -8 0 -13 -8 -13 -18 1 -10 -3 -16 -9 -14 -15 5 -88 -83 -80 -97 4 -5
9 -2 13 8 3 10 10 18 15 19 6 1 9 8 7 14 -2 8 3 10 13 7 11 -5 14 -2 8 12 -5
13 -3 15 7 9 9 -5 11 -4 6 3 -4 7 -1 12 8 12 17 0 60 56 52 69 -8 12 21 34 33
26 7 -4 8 1 4 11 -4 12 -3 15 5 10 8 -5 10 -1 5 10 -5 14 -3 16 11 11 10 -4
15 -3 11 3 -10 16 -18 11 -60 -37z"/>
<path d="M1050 1189 c0 -5 5 -7 10 -4 6 3 10 8 10 11 0 2 -4 4 -10 4 -5 0 -10
-5 -10 -11z"/>
<path d="M1075 1170 c-13 -15 -21 -17 -26 -9 -4 7 -6 0 -6 -14 l2 -27 29 30
c17 16 28 32 25 35 -3 3 -14 -4 -24 -15z"/>
<path d="M972 1103 c-14 -25 -16 -45 -2 -23 5 8 12 12 15 8 4 -3 -1 -17 -9
-31 -13 -19 -24 -24 -51 -21 -19 1 -37 -1 -40 -6 -3 -4 3 -7 13 -6 9 0 17 -6
17 -14 0 -8 -8 -14 -17 -14 -10 1 -14 -4 -11 -12 3 -8 0 -14 -6 -14 -6 0 -11
-5 -11 -11 0 -6 15 2 34 18 19 15 33 34 30 42 -3 8 1 11 10 8 8 -3 25 6 38 21
35 39 42 53 24 46 -9 -3 -16 2 -18 13 -4 16 -5 16 -16 -4z"/>
<path d="M820 1010 c0 -5 4 -10 9 -10 6 0 13 5 16 10 3 6 -1 10 -9 10 -9 0
-16 -4 -16 -10z"/>
<path d="M728 953 c6 -2 18 -2 25 0 6 3 1 5 -13 5 -14 0 -19 -2 -12 -5z"/>
<path d="M835 951 c3 -5 -4 -12 -15 -16 -11 -3 -20 -11 -20 -16 0 -6 13 -2 29
7 28 16 33 34 10 34 -6 0 -8 -4 -4 -9z"/>
<path d="M765 930 c3 -5 8 -10 11 -10 2 0 4 5 4 10 0 6 -5 10 -11 10 -5 0 -7
-4 -4 -10z"/>
<path d="M765 900 c-3 -5 -2 -10 4 -10 5 0 13 5 16 10 3 6 2 10 -4 10 -5 0
-13 -4 -16 -10z"/>
<path d="M719 883 c-1 -5 -1 -10 -1 -14 1 -10 -158 -100 -168 -94 -6 3 -19 3
-31 0 -16 -5 -18 -10 -9 -20 12 -14 46 0 150 64 19 11 50 28 68 38 22 12 28
19 20 25 -16 10 -28 10 -29 1z"/>
<path d="M648 873 c7 -3 16 -2 19 1 4 3 -2 6 -13 5 -11 0 -14 -3 -6 -6z"/>
<path d="M483 743 c11 -11 -54 -34 -77 -28 -17 5 -18 4 -6 -5 12 -9 10 -11
-10 -6 -14 3 -32 1 -40 -4 -11 -7 -11 -10 -2 -10 7 0 11 -4 8 -9 -3 -5 30 5
74 21 44 17 77 35 74 39 -3 5 -10 9 -16 9 -6 0 -8 -3 -5 -7z"/>
<path d="M320 681 c0 -6 -8 -11 -18 -11 -10 0 -22 -4 -27 -9 -6 -5 -19 -11
-30 -13 -11 -2 -15 -6 -9 -10 5 -4 32 3 59 16 32 14 45 25 37 30 -7 4 -12 2
-12 -3z"/>
<path d="M160 670 c0 -5 5 -10 10 -10 6 0 10 5 10 10 0 6 -4 10 -10 10 -5 0
-10 -4 -10 -10z"/>
<path d="M58 633 c7 -3 16 -2 19 1 4 3 -2 6 -13 5 -11 0 -14 -3 -6 -6z"/>
<path d="M170 631 c12 -9 13 -11 1 -11 -8 0 -12 -2 -10 -5 3 -2 18 0 35 4 16
5 21 10 12 10 -9 1 -25 4 -35 7 -15 5 -15 4 -3 -5z"/>
<path d="M95 600 c-13 -5 -14 -9 -5 -9 8 0 24 4 35 9 13 5 14 9 5 9 -8 0 -24
-4 -35 -9z"/>
<path d="M10 580 c-11 -7 -5 -8 20 -4 43 8 51 14 19 14 -13 0 -31 -5 -39 -10z"/>
</g>
</svg>
