<svg version="1" xmlns="http://www.w3.org/2000/svg" width="666.667" height="666.667" viewBox="0 0 500.000000 500.000000"><path d="M195 41.5c0 1.4 7.9 60.4 17.5 131.2 9.7 70.9 22 161.7 27.5 202 5.5 40.3 10 73.4 10 73.7 0 .4 13 .6 29 .6h28.9l.6-3.3c1.5-8.6 28.7-250.2 30.4-270.7 1.2-12.9 2.4-26.9 2.8-31l.7-7.5.8 10.5c2.5 32.3 6.2 67 18.8 174.5 7.7 65.5 14.2 120.9 14.5 123.2l.6 4.3h57.8l.6-3.3c.3-1.7 5.5-39.7 11.5-84.2 6-44.6 18.1-134.4 27-199.6 8.8-65.2 16-119.5 16-120.7V39h-47l-.4 2.2C442 43.7 416.9 260 414.5 283c-2.6 25-6.5 69.3-6.5 74.4 0 10.3-1.7 2.5-2.9-12.9-2.3-31.7-7.4-77.8-20.6-187-7.4-61-13.7-112.7-14.1-114.8l-.6-3.7h-52.7l-.6 3.2c-1.3 7.5-28.6 235-30.5 254.3-1.1 11.5-2.9 30.8-3.9 42.8-1.8 20.9-3.1 28.6-3.1 18.1 0-5.4-3.2-43.4-5.6-67.4-.8-8.5-8-68.1-16-132.5C249.5 93.2 243 40.2 243 39.8c0-.5-10.8-.8-24-.8h-24v2.5zM90.6 110.6c-26.5 6.4-50.5 35.7-65 79.4-19.1 57.9-19.1 129 .1 187 8.6 26.1 19.7 45.5 34.8 60.5 13.6 13.7 26 19.5 41.5 19.5 14.3 0 27.3-5.7 39.9-17.6 12.3-11.6 17.1-19.4 34.6-56.7 14.2-30.3 16-33.7 17.2-32 .8 1 3.5 5.6 6.1 10.2 4.6 8.2 4.7 8.3 5 5 .2-1.9 1.4-24.3 2.6-49.9 1.4-31.5 1.8-46.6 1.1-46.8-1-.2-49.3 17.2-50.3 18.2-.2.3 2.3 5.2 5.6 10.9l6 10.5-14.8 31.3c-16.3 34.4-20.8 41.6-31 48.9-8.4 6.2-13.1 7.9-22 7.9-6.3.1-8.5-.4-13.8-2.9-11.2-5.3-21.6-16.8-29.7-32.9-6.3-12.6-14-39.1-11.9-41.1.9-.8 84.5-43.9 122.9-63.3 10.5-5.3 19.6-10 20.3-10.5 1-.7.7-3.8-1.2-15.4-4-23.3-8.6-39.6-16.3-57.8-19.6-46-50.8-69.9-81.7-62.4zm25.6 62.2c7.6 3.6 13.3 8.3 19.5 16.5 5.3 6.9 13.5 22.2 13.1 24.4C148.6 214.8 45 269 43.1 269c-.7 0 1.1-14.8 3.1-25 3.8-20.1 10.2-36.9 19.4-50.6 14.4-21.7 32.7-29.1 50.6-20.6z"/><path d="M181.2 388.8c-6.7 15.3-12.2 28.1-12.2 28.5 0 .4.4.7.9.7 1.4 0 25.4-55.1 24.4-56.1-.4-.4-6.3 11.5-13.1 26.9zM184.7 394.9c-4.9 11-8.7 20.6-8.5 21.2.5 1.5 18-38 17.6-39.8-.2-.8-4.3 7.6-9.1 18.6z"/></svg>